<svg xmlns="http://www.w3.org/2000/svg" xmlns:xlink="http://www.w3.org/1999/xlink" width="2379" zoomAndPan="magnify" viewBox="0 0 1784.88 1784.99993" height="2379" preserveAspectRatio="xMidYMid meet" version="1.0"><defs><g/><clipPath id="0baf071bc8"><path d="M 507 658 L 1551 658 L 1551 1541 L 507 1541 Z M 507 658 " clip-rule="nonzero"/></clipPath><clipPath id="b27206c8f6"><path d="M 583.917969 616.921875 L 1559.308594 721.050781 L 1466.964844 1586.074219 L 491.570312 1481.949219 Z M 583.917969 616.921875 " clip-rule="nonzero"/></clipPath><clipPath id="0bfdbe811e"><path d="M 583.917969 616.921875 L 1559.308594 721.050781 L 1466.964844 1586.074219 L 491.570312 1481.949219 Z M 583.917969 616.921875 " clip-rule="nonzero"/></clipPath><clipPath id="71f522025a"><path d="M 504 650 L 1555 650 L 1555 1547 L 504 1547 Z M 504 650 " clip-rule="nonzero"/></clipPath><clipPath id="38a8205911"><path d="M 583.917969 616.921875 L 1559.308594 721.050781 L 1466.964844 1586.074219 L 491.570312 1481.949219 Z M 583.917969 616.921875 " clip-rule="nonzero"/></clipPath><clipPath id="35bfd80907"><path d="M 583.917969 616.921875 L 1559.308594 721.050781 L 1466.964844 1586.074219 L 491.570312 1481.949219 Z M 583.917969 616.921875 " clip-rule="nonzero"/></clipPath><clipPath id="396cd0503b"><path d="M 1174 799 L 1290 799 L 1290 916 L 1174 916 Z M 1174 799 " clip-rule="nonzero"/></clipPath><clipPath id="9b8ddb5e98"><path d="M 583.917969 616.921875 L 1559.308594 721.050781 L 1466.964844 1586.074219 L 491.570312 1481.949219 Z M 583.917969 616.921875 " clip-rule="nonzero"/></clipPath><clipPath id="05781d64d2"><path d="M 583.917969 616.921875 L 1559.308594 721.050781 L 1466.964844 1586.074219 L 491.570312 1481.949219 Z M 583.917969 616.921875 " clip-rule="nonzero"/></clipPath><clipPath id="90a7710c27"><path d="M 1300 800 L 1365 800 L 1365 857 L 1300 857 Z M 1300 800 " clip-rule="nonzero"/></clipPath><clipPath id="45dcd94222"><path d="M 583.917969 616.921875 L 1559.308594 721.050781 L 1466.964844 1586.074219 L 491.570312 1481.949219 Z M 583.917969 616.921875 " clip-rule="nonzero"/></clipPath><clipPath id="3f92f7d991"><path d="M 583.917969 616.921875 L 1559.308594 721.050781 L 1466.964844 1586.074219 L 491.570312 1481.949219 Z M 583.917969 616.921875 " clip-rule="nonzero"/></clipPath><clipPath id="88a58b6023"><path d="M 1153 775 L 1322 775 L 1322 956 L 1153 956 Z M 1153 775 " clip-rule="nonzero"/></clipPath><clipPath id="b1a67056a6"><path d="M 583.917969 616.921875 L 1559.308594 721.050781 L 1466.964844 1586.074219 L 491.570312 1481.949219 Z M 583.917969 616.921875 " clip-rule="nonzero"/></clipPath><clipPath id="f9248ee693"><path d="M 583.917969 616.921875 L 1559.308594 721.050781 L 1466.964844 1586.074219 L 491.570312 1481.949219 Z M 583.917969 616.921875 " clip-rule="nonzero"/></clipPath><clipPath id="76978704c4"><path d="M 746 865 L 972 865 L 972 922 L 746 922 Z M 746 865 " clip-rule="nonzero"/></clipPath><clipPath id="700763350e"><path d="M 583.917969 616.921875 L 1559.308594 721.050781 L 1466.964844 1586.074219 L 491.570312 1481.949219 Z M 583.917969 616.921875 " clip-rule="nonzero"/></clipPath><clipPath id="026342e906"><path d="M 583.917969 616.921875 L 1559.308594 721.050781 L 1466.964844 1586.074219 L 491.570312 1481.949219 Z M 583.917969 616.921875 " clip-rule="nonzero"/></clipPath><clipPath id="d251b30e53"><path d="M 707 907 L 828 907 L 828 942 L 707 942 Z M 707 907 " clip-rule="nonzero"/></clipPath><clipPath id="592c3d9286"><path d="M 583.917969 616.921875 L 1559.308594 721.050781 L 1466.964844 1586.074219 L 491.570312 1481.949219 Z M 583.917969 616.921875 " clip-rule="nonzero"/></clipPath><clipPath id="0446107a85"><path d="M 583.917969 616.921875 L 1559.308594 721.050781 L 1466.964844 1586.074219 L 491.570312 1481.949219 Z M 583.917969 616.921875 " clip-rule="nonzero"/></clipPath><clipPath id="a1a60e2767"><path d="M 845 942 L 866 942 L 866 955 L 845 955 Z M 845 942 " clip-rule="nonzero"/></clipPath><clipPath id="68ffd8bf20"><path d="M 583.917969 616.921875 L 1559.308594 721.050781 L 1466.964844 1586.074219 L 491.570312 1481.949219 Z M 583.917969 616.921875 " clip-rule="nonzero"/></clipPath><clipPath id="680fe41a6b"><path d="M 583.917969 616.921875 L 1559.308594 721.050781 L 1466.964844 1586.074219 L 491.570312 1481.949219 Z M 583.917969 616.921875 " clip-rule="nonzero"/></clipPath><clipPath id="bf664eb2ee"><path d="M 897 949 L 993 949 L 993 989 L 897 989 Z M 897 949 " clip-rule="nonzero"/></clipPath><clipPath id="3671388d37"><path d="M 583.917969 616.921875 L 1559.308594 721.050781 L 1466.964844 1586.074219 L 491.570312 1481.949219 Z M 583.917969 616.921875 " clip-rule="nonzero"/></clipPath><clipPath id="a12899c11a"><path d="M 583.917969 616.921875 L 1559.308594 721.050781 L 1466.964844 1586.074219 L 491.570312 1481.949219 Z M 583.917969 616.921875 " clip-rule="nonzero"/></clipPath><clipPath id="429a6fbeaf"><path d="M 660 965 L 764 965 L 764 1004 L 660 1004 Z M 660 965 " clip-rule="nonzero"/></clipPath><clipPath id="dc5fb27a0d"><path d="M 583.917969 616.921875 L 1559.308594 721.050781 L 1466.964844 1586.074219 L 491.570312 1481.949219 Z M 583.917969 616.921875 " clip-rule="nonzero"/></clipPath><clipPath id="4637874f00"><path d="M 583.917969 616.921875 L 1559.308594 721.050781 L 1466.964844 1586.074219 L 491.570312 1481.949219 Z M 583.917969 616.921875 " clip-rule="nonzero"/></clipPath><clipPath id="d4e7640b7f"><path d="M 804 1009 L 826 1009 L 826 1019 L 804 1019 Z M 804 1009 " clip-rule="nonzero"/></clipPath><clipPath id="cf817efd6a"><path d="M 583.917969 616.921875 L 1559.308594 721.050781 L 1466.964844 1586.074219 L 491.570312 1481.949219 Z M 583.917969 616.921875 " clip-rule="nonzero"/></clipPath><clipPath id="6c3b5555e7"><path d="M 583.917969 616.921875 L 1559.308594 721.050781 L 1466.964844 1586.074219 L 491.570312 1481.949219 Z M 583.917969 616.921875 " clip-rule="nonzero"/></clipPath><clipPath id="3367a36dca"><path d="M 873 1015 L 994 1015 L 994 1065 L 873 1065 Z M 873 1015 " clip-rule="nonzero"/></clipPath><clipPath id="a0282ad277"><path d="M 583.917969 616.921875 L 1559.308594 721.050781 L 1466.964844 1586.074219 L 491.570312 1481.949219 Z M 583.917969 616.921875 " clip-rule="nonzero"/></clipPath><clipPath id="c1711d25b9"><path d="M 583.917969 616.921875 L 1559.308594 721.050781 L 1466.964844 1586.074219 L 491.570312 1481.949219 Z M 583.917969 616.921875 " clip-rule="nonzero"/></clipPath><clipPath id="0e06005b36"><path d="M 646 1044 L 911 1044 L 911 1135 L 646 1135 Z M 646 1044 " clip-rule="nonzero"/></clipPath><clipPath id="ec2008389a"><path d="M 583.917969 616.921875 L 1559.308594 721.050781 L 1466.964844 1586.074219 L 491.570312 1481.949219 Z M 583.917969 616.921875 " clip-rule="nonzero"/></clipPath><clipPath id="bb831d0895"><path d="M 583.917969 616.921875 L 1559.308594 721.050781 L 1466.964844 1586.074219 L 491.570312 1481.949219 Z M 583.917969 616.921875 " clip-rule="nonzero"/></clipPath><clipPath id="79fa08ce06"><path d="M 651 1129 L 815 1129 L 815 1189 L 651 1189 Z M 651 1129 " clip-rule="nonzero"/></clipPath><clipPath id="5ab2fbe5ca"><path d="M 583.917969 616.921875 L 1559.308594 721.050781 L 1466.964844 1586.074219 L 491.570312 1481.949219 Z M 583.917969 616.921875 " clip-rule="nonzero"/></clipPath><clipPath id="564c462020"><path d="M 583.917969 616.921875 L 1559.308594 721.050781 L 1466.964844 1586.074219 L 491.570312 1481.949219 Z M 583.917969 616.921875 " clip-rule="nonzero"/></clipPath><clipPath id="7feb8d08d9"><path d="M 930 1309 L 1076 1309 L 1076 1421 L 930 1421 Z M 930 1309 " clip-rule="nonzero"/></clipPath><clipPath id="494b5ea5f3"><path d="M 583.917969 616.921875 L 1559.308594 721.050781 L 1466.964844 1586.074219 L 491.570312 1481.949219 Z M 583.917969 616.921875 " clip-rule="nonzero"/></clipPath><clipPath id="acbc88cd34"><path d="M 583.917969 616.921875 L 1559.308594 721.050781 L 1466.964844 1586.074219 L 491.570312 1481.949219 Z M 583.917969 616.921875 " clip-rule="nonzero"/></clipPath><clipPath id="04f2c45b14"><path d="M 987 1384 L 1040 1384 L 1040 1432 L 987 1432 Z M 987 1384 " clip-rule="nonzero"/></clipPath><clipPath id="cd9e410be9"><path d="M 583.917969 616.921875 L 1559.308594 721.050781 L 1466.964844 1586.074219 L 491.570312 1481.949219 Z M 583.917969 616.921875 " clip-rule="nonzero"/></clipPath><clipPath id="85caa4ec13"><path d="M 583.917969 616.921875 L 1559.308594 721.050781 L 1466.964844 1586.074219 L 491.570312 1481.949219 Z M 583.917969 616.921875 " clip-rule="nonzero"/></clipPath><clipPath id="4910e1369e"><path d="M 1026 1422 L 1043 1422 L 1043 1439 L 1026 1439 Z M 1026 1422 " clip-rule="nonzero"/></clipPath><clipPath id="7295695814"><path d="M 583.917969 616.921875 L 1559.308594 721.050781 L 1466.964844 1586.074219 L 491.570312 1481.949219 Z M 583.917969 616.921875 " clip-rule="nonzero"/></clipPath><clipPath id="deb627e0e5"><path d="M 583.917969 616.921875 L 1559.308594 721.050781 L 1466.964844 1586.074219 L 491.570312 1481.949219 Z M 583.917969 616.921875 " clip-rule="nonzero"/></clipPath><clipPath id="16ec97d472"><path d="M 846 720 L 1112 720 L 1112 822 L 846 822 Z M 846 720 " clip-rule="nonzero"/></clipPath><clipPath id="29312d7599"><path d="M 583.917969 616.921875 L 1559.308594 721.050781 L 1466.964844 1586.074219 L 491.570312 1481.949219 Z M 583.917969 616.921875 " clip-rule="nonzero"/></clipPath><clipPath id="ab33c3aeda"><path d="M 583.917969 616.921875 L 1559.308594 721.050781 L 1466.964844 1586.074219 L 491.570312 1481.949219 Z M 583.917969 616.921875 " clip-rule="nonzero"/></clipPath></defs><g clip-path="url(#0baf071bc8)"><g clip-path="url(#b27206c8f6)"><g clip-path="url(#0bfdbe811e)"><path fill="#ffffff" d="M 1108.101562 1540.394531 C 1053.585938 1521.160156 999.34375 1501.136719 945.414062 1480.3125 C 914.449219 1467.355469 880.769531 1456.375 847.09375 1445.40625 C 825.269531 1438.296875 803.414062 1431.175781 780.957031 1426.429688 C 764.78125 1423.003906 748.082031 1420.734375 733.214844 1413.5 C 660.074219 1399.097656 583.761719 1384.476562 507.449219 1369.871094 C 513.429688 1318.566406 520.402344 1268.515625 529.496094 1218.855469 C 544.347656 1145.613281 565.292969 1074.035156 592.261719 1004.8125 C 624.292969 932.324219 656.011719 858.433594 709.183594 800.53125 C 740.75 759.007812 782.207031 728.636719 823.171875 698.742188 C 845.511719 682.429688 868.519531 665.800781 895.210938 658.554688 C 918.507812 662.84375 942.222656 669.566406 966.359375 674.507812 C 1008.347656 683.121094 1051.359375 686.320312 1090.550781 695.667969 C 1147.125 702.371094 1203.605469 709.804688 1255.289062 718.179688 C 1296.847656 723.5625 1338.203125 730.429688 1377.121094 740.007812 C 1426.101562 745.621094 1475.078125 751.234375 1524.070312 756.839844 C 1532.945312 757.855469 1542.019531 758.933594 1550.074219 762.792969 C 1542.742188 769.394531 1533.359375 773.132812 1524.421875 777.292969 C 1485.15625 795.519531 1451.453125 823.59375 1417.695312 855.941406 C 1402.410156 873.664062 1384.152344 888.53125 1367.445312 904.917969 C 1340.402344 931.460938 1317.542969 961.90625 1294.800781 992.21875 C 1284.085938 1006.488281 1273.371094 1020.757812 1260.292969 1038.023438 C 1211.664062 1103.550781 1171.09375 1175.046875 1139.261719 1252.183594 C 1124.554688 1285.269531 1118.417969 1321.414062 1112.429688 1357.136719 C 1104.753906 1402.785156 1097.074219 1449.210938 1102.320312 1495.476562 C 1106.429688 1510.136719 1109.246094 1525.15625 1108.101562 1540.394531 " fill-opacity="1" fill-rule="nonzero"/></g></g></g><g clip-path="url(#71f522025a)"><g clip-path="url(#38a8205911)"><g clip-path="url(#35bfd80907)"><path fill="#454c57" d="M 1554.84375 761.929688 C 1555.0625 756.265625 1548.597656 756.976562 1544.632812 756.359375 C 1535.203125 755.308594 1525.753906 754.425781 1516.335938 753.261719 C 1435.46875 743.703125 1355.484375 728.152344 1275.15625 715.039062 C 1247.613281 710.671875 1219.839844 707.96875 1192.199219 704.378906 C 1151.542969 698.664062 1110.902344 692.910156 1070.316406 686.78125 C 1030.355469 680.136719 990.789062 671.234375 950.914062 664.070312 C 930.453125 659.964844 915.078125 657.128906 896.246094 651.136719 C 893.476562 650.019531 891.023438 651.960938 890.414062 654.308594 C 879.105469 657.554688 869.039062 663.761719 858.980469 669.695312 C 842.761719 679.496094 827.011719 690.039062 811.355469 700.695312 C 763.992188 733.488281 720.101562 772.457031 686.710938 819.675781 C 660.800781 857.203125 638.800781 897.289062 618.6875 938.171875 C 576.242188 1022.242188 546.042969 1112.246094 527.246094 1204.46875 C 519.484375 1242.867188 514.359375 1281.730469 509.148438 1320.535156 C 507.597656 1333.011719 506.140625 1345.507812 505.136719 1358.039062 C 505.074219 1360.773438 504.574219 1363.542969 504.484375 1366.28125 C 504.320312 1367.023438 504.324219 1367.796875 504.527344 1368.53125 C 504.554688 1368.855469 504.582031 1369.195312 504.625 1369.527344 C 505 1371.203125 506.636719 1372.453125 508.316406 1372.625 C 509.003906 1372.644531 509.578125 1372.546875 510.082031 1372.402344 C 536.519531 1382.648438 565.28125 1384.847656 592.820312 1390.976562 C 615.21875 1395.25 637.394531 1400.609375 659.828125 1404.734375 C 699.894531 1411.691406 740.277344 1420.476562 776.535156 1429.851562 C 825.789062 1442.367188 874.191406 1457.992188 921.832031 1475.652344 C 971.992188 1492.96875 1021.546875 1511.957031 1071.433594 1530.027344 C 1080.941406 1533.402344 1090.480469 1536.746094 1099.488281 1541.335938 C 1102.035156 1542.589844 1104.632812 1543.792969 1107.148438 1545.125 C 1109.527344 1546.601562 1112.753906 1548.1875 1114.949219 1545.640625 C 1116.089844 1544.566406 1116.414062 1542.875 1115.988281 1541.394531 C 1116.699219 1537.964844 1114.234375 1533.425781 1113.742188 1529.90625 C 1111.898438 1522.464844 1110.125 1514.988281 1109 1507.390625 C 1101.53125 1453.734375 1108.328125 1398.066406 1118.902344 1342.558594 C 1128.238281 1292.976562 1147.902344 1241.542969 1171.148438 1193.25 C 1203.945312 1125.660156 1245.933594 1061.179688 1294.285156 1000.328125 C 1310.035156 979.816406 1325.140625 958.78125 1342.089844 939.226562 C 1370.464844 906.585938 1397.335938 879.367188 1429.300781 849.328125 C 1450.953125 829.066406 1476.425781 808.46875 1499.316406 795.660156 C 1515.027344 786.367188 1531.535156 778.527344 1548.28125 771.316406 C 1550.390625 770.210938 1553.113281 769.859375 1554.042969 767.40625 C 1554.503906 766.304688 1554.398438 765.136719 1553.9375 764.128906 C 1554.332031 763.574219 1554.65625 762.871094 1554.84375 761.929688 M 1470.988281 803.417969 C 1445.382812 821.738281 1422.355469 843.359375 1399.914062 865.367188 C 1364.042969 900.777344 1329.515625 937.691406 1299.84375 978.539062 C 1285.535156 997.898438 1270.144531 1016.441406 1256.027344 1035.957031 C 1227.527344 1075.652344 1201.195312 1116.96875 1178.210938 1160.113281 C 1149.867188 1213.972656 1125.46875 1270.59375 1112.617188 1330.277344 C 1100.328125 1389.328125 1092.140625 1450.550781 1100.65625 1510.675781 C 1102.007812 1518.800781 1103.933594 1526.828125 1106.007812 1534.800781 C 1097.238281 1530.460938 1088.261719 1526.597656 1078.996094 1523.441406 C 997.898438 1494.308594 917.625 1462.648438 835.257812 1437.195312 C 792.335938 1424.125 748.679688 1413.589844 704.792969 1404.3125 C 682.246094 1399.632812 659.453125 1396.1875 636.945312 1391.277344 C 603.332031 1383.699219 569.375 1377.894531 535.605469 1371.144531 C 530.484375 1369.953125 525.832031 1368.835938 518.402344 1366.296875 C 516.734375 1365.847656 515.132812 1365.046875 513.511719 1364.34375 C 513.546875 1362.363281 513.511719 1360.414062 513.832031 1358.96875 C 514.675781 1348.097656 515.957031 1337.277344 517.21875 1326.453125 C 522.304688 1287.6875 527.457031 1248.910156 534.914062 1210.523438 C 554.167969 1112 588.972656 1012.582031 637.140625 920.820312 C 662.921875 870.515625 696.394531 813.394531 736.113281 774.429688 C 766.257812 743.871094 800.515625 717.6875 836.449219 694.332031 C 849.574219 685.742188 858.398438 679.90625 871.214844 672.621094 C 877.96875 668.691406 884.914062 664.988281 892.449219 662.777344 C 894.082031 662.296875 895.894531 661.84375 896.847656 660.40625 C 929.75 670.179688 963.945312 674.914062 997.515625 681.898438 C 1016.769531 685.464844 1035.921875 689.601562 1055.179688 693.136719 C 1077.394531 696.917969 1099.714844 700.039062 1122.015625 703.167969 C 1167.964844 710.257812 1214.09375 715.828125 1260.199219 721.644531 C 1346.289062 734.894531 1431.761719 752.363281 1518.34375 762.304688 C 1525.984375 763.214844 1533.652344 763.960938 1541.308594 764.796875 C 1516.769531 775.550781 1492.933594 787.996094 1470.988281 803.417969 " fill-opacity="1" fill-rule="nonzero"/></g></g></g><g clip-path="url(#396cd0503b)"><g clip-path="url(#9b8ddb5e98)"><g clip-path="url(#05781d64d2)"><path fill="#ef9832" d="M 1285.664062 843.441406 C 1278.746094 843.023438 1271.796875 842.726562 1264.832031 842.597656 C 1266.253906 831.921875 1267.304688 821.214844 1267.101562 810.441406 C 1266.734375 804.246094 1263.535156 797.0625 1256.109375 799.710938 C 1252.003906 801.464844 1249.191406 805.246094 1245.914062 808.15625 C 1237.910156 816.148438 1229.832031 824.078125 1221.59375 831.832031 C 1216.121094 837.027344 1210.632812 842.234375 1205.167969 847.441406 C 1204.507812 847.582031 1203.851562 847.703125 1203.207031 847.851562 C 1201.480469 848.222656 1199.511719 848.40625 1198.429688 849.988281 C 1197.40625 851.296875 1197.378906 852.933594 1197.988281 854.292969 C 1190.574219 861.394531 1183.210938 868.539062 1175.957031 875.785156 C 1171.578125 879.429688 1176.871094 886.121094 1181.445312 882.597656 C 1190.625 873.433594 1199.957031 864.449219 1209.34375 855.503906 C 1225.265625 852.375 1239.753906 851.375 1254.773438 851.285156 C 1252.96875 864.480469 1251.011719 877.667969 1249.648438 890.921875 C 1248.980469 896.617188 1248.269531 902.308594 1247.753906 908.019531 C 1247.714844 909.351562 1247.246094 910.753906 1247.738281 912.03125 C 1248.21875 914.144531 1250.515625 915.414062 1252.605469 915.097656 C 1257.839844 913.980469 1256.074219 907.296875 1257.011719 903.363281 C 1257.894531 895.484375 1258.832031 887.617188 1259.757812 879.738281 C 1260.742188 870.257812 1262.234375 860.796875 1263.617188 851.328125 C 1268.765625 851.398438 1274.027344 851.542969 1279.476562 851.71875 C 1282.265625 851.621094 1285.523438 853.0625 1287.949219 851.1875 C 1290.941406 848.929688 1289.4375 843.71875 1285.664062 843.441406 M 1220.589844 844.804688 C 1225.265625 840.363281 1229.933594 835.929688 1234.597656 831.480469 C 1242.394531 824.125 1249.738281 816.308594 1257.632812 809.054688 C 1257.734375 808.960938 1257.855469 808.882812 1257.96875 808.792969 C 1259.210938 814.78125 1258.167969 820.539062 1257.550781 828.730469 C 1257.074219 833.34375 1256.523438 837.941406 1255.929688 842.539062 C 1244.105469 842.59375 1232.28125 843.246094 1220.589844 844.804688 " fill-opacity="1" fill-rule="nonzero"/></g></g></g><g clip-path="url(#90a7710c27)"><g clip-path="url(#45dcd94222)"><g clip-path="url(#3f92f7d991)"><path fill="#ef9832" d="M 1363.339844 827.578125 C 1361.996094 825.890625 1359.777344 825.90625 1357.855469 825.40625 C 1353.074219 824.355469 1348.269531 823.382812 1343.441406 822.472656 C 1347.65625 817.21875 1351.886719 812.539062 1356.675781 808.5625 C 1362.605469 805.542969 1357.691406 797.207031 1352.273438 801.03125 C 1345.003906 806.46875 1339.25 813.664062 1333.671875 820.816406 C 1326.960938 819.789062 1320.21875 819.011719 1313.425781 818.628906 C 1310.707031 818.480469 1307.96875 818.363281 1305.238281 818.359375 C 1303.5625 818.171875 1301.707031 819.050781 1300.980469 820.609375 C 1299.351562 823.148438 1301.339844 826.847656 1304.308594 827.054688 C 1312.132812 827.117188 1319.949219 827.757812 1327.703125 828.789062 C 1322.488281 835.917969 1317.070312 843.03125 1312.890625 850.71875 C 1311.824219 854.089844 1315.757812 857.265625 1318.894531 855.734375 C 1321.109375 854.644531 1321.902344 851.988281 1323.378906 850.148438 C 1326.753906 845.085938 1330.253906 840.097656 1333.824219 835.171875 C 1335.058594 833.488281 1336.257812 831.859375 1337.460938 830.257812 C 1339.097656 830.542969 1340.726562 830.828125 1342.371094 831.136719 C 1346.8125 831.972656 1351.246094 832.855469 1355.65625 833.820312 C 1357.480469 834.050781 1359.378906 835.117188 1361.183594 834.472656 C 1364.117188 833.8125 1365.265625 829.816406 1363.339844 827.578125 " fill-opacity="1" fill-rule="nonzero"/></g></g></g><g clip-path="url(#88a58b6023)"><g clip-path="url(#b1a67056a6)"><g clip-path="url(#f9248ee693)"><path fill="#ef9832" d="M 1312.652344 890.128906 C 1310.078125 898.464844 1308.6875 901.339844 1304.128906 907.804688 C 1291.265625 925.476562 1266.207031 938.589844 1246.183594 943.933594 C 1207.148438 954.503906 1173.800781 939.550781 1164.367188 904.042969 C 1157.863281 878.234375 1168.09375 853.933594 1181.523438 832.578125 C 1193.078125 814.117188 1207.488281 801.296875 1224.960938 792.503906 C 1247.40625 781.722656 1275.675781 780.859375 1294 792.011719 C 1297.222656 794.222656 1296.261719 793.722656 1298.117188 795.476562 C 1298.851562 796.359375 1299.910156 796.976562 1301.058594 797.082031 C 1304.765625 797.632812 1307.402344 792.820312 1304.921875 789.984375 C 1289.425781 774.402344 1263.597656 773.441406 1243.152344 777.269531 C 1212.859375 783.273438 1187.398438 805.007812 1172.085938 831.261719 C 1161.382812 848.5625 1153.589844 868.4375 1153.578125 889.003906 C 1153.714844 914.441406 1168.472656 939.84375 1192.171875 950.070312 C 1226.703125 964.433594 1266.886719 950.5625 1295.421875 929.136719 C 1306.761719 919.640625 1317.007812 907.949219 1320.792969 893.34375 C 1322.773438 887.925781 1314.894531 884.851562 1312.652344 890.128906 " fill-opacity="1" fill-rule="nonzero"/></g></g></g><g clip-path="url(#76978704c4)"><g clip-path="url(#700763350e)"><g clip-path="url(#026342e906)"><path fill="#454c57" d="M 971.617188 914.910156 C 970.25 912.175781 966.761719 911.835938 964.273438 910.515625 C 947.78125 903.78125 931.097656 897.21875 913.65625 893.359375 C 889.828125 889.144531 865.683594 886.761719 841.871094 882.308594 C 813.375 877.628906 785.484375 869.605469 756.859375 865.765625 C 754.050781 865.777344 750.796875 864.492188 748.367188 866.324219 C 745.382812 868.589844 746.863281 873.796875 750.644531 874.074219 C 767.332031 875.152344 783.597656 879.476562 799.933594 882.824219 C 818.773438 886.882812 837.695312 890.675781 856.761719 893.601562 C 875.648438 897.128906 894.890625 898.480469 913.734375 902.289062 C 926.886719 905.195312 947.519531 912.917969 963.484375 919.675781 C 965.367188 920.476562 967.394531 921.703125 969.429688 920.691406 C 971.578125 919.78125 972.621094 917.023438 971.617188 914.910156 " fill-opacity="1" fill-rule="nonzero"/></g></g></g><g clip-path="url(#d251b30e53)"><g clip-path="url(#592c3d9286)"><g clip-path="url(#0446107a85)"><path fill="#454c57" d="M 824.132812 933.234375 C 791.410156 925.789062 759.644531 916.257812 724.1875 910.203125 C 718.632812 909.050781 718.839844 909.15625 713.253906 907.558594 C 712.164062 907.132812 710.921875 907.160156 709.855469 907.644531 C 706.402344 909.0625 706.507812 914.433594 710.042969 915.703125 C 726.292969 920.273438 743.128906 922.25 759.535156 926.175781 C 776.914062 930.402344 801.992188 937.234375 823.207031 941.929688 C 828.882812 942.457031 829.859375 933.960938 824.132812 933.234375 " fill-opacity="1" fill-rule="nonzero"/></g></g></g><g clip-path="url(#a1a60e2767)"><g clip-path="url(#68ffd8bf20)"><g clip-path="url(#680fe41a6b)"><path fill="#454c57" d="M 861.929688 945.441406 C 855.648438 944.210938 853.847656 943.363281 849.296875 942.675781 C 844.628906 942.59375 843.472656 949.476562 847.8125 951.082031 C 852.179688 952.238281 856.601562 953.148438 861 954.136719 C 862.148438 954.269531 863.328125 953.910156 864.214844 953.195312 C 867.222656 950.929688 865.691406 945.71875 861.929688 945.441406 " fill-opacity="1" fill-rule="nonzero"/></g></g></g><g clip-path="url(#bf664eb2ee)"><g clip-path="url(#3671388d37)"><g clip-path="url(#a12899c11a)"><path fill="#454c57" d="M 988.40625 979.09375 C 973.097656 970.800781 956.546875 965.421875 940.042969 960.074219 C 929.144531 956.492188 918.359375 952.207031 906.980469 950.394531 C 904.410156 950.25 901.410156 949.011719 899.175781 950.796875 C 896.171875 953.070312 897.699219 958.273438 901.46875 958.550781 C 913.871094 959.613281 923.683594 963.929688 937.308594 968.367188 C 953.15625 973.507812 969.066406 978.667969 983.816406 986.519531 C 990.648438 991.773438 996.484375 982.292969 988.40625 979.09375 " fill-opacity="1" fill-rule="nonzero"/></g></g></g><g clip-path="url(#429a6fbeaf)"><g clip-path="url(#dc5fb27a0d)"><g clip-path="url(#4637874f00)"><path fill="#454c57" d="M 762.40625 996.183594 C 760.90625 994.328125 758.230469 994.472656 756.136719 993.726562 C 732.128906 987.492188 709.023438 978.375 685.285156 971.261719 C 679.035156 969.441406 672.75 967.765625 666.441406 966.175781 C 665.351562 965.746094 664.105469 965.78125 663.046875 966.257812 C 659.589844 967.683594 659.695312 973.046875 663.230469 974.3125 C 695.773438 981.914062 726.566406 995.960938 759.125 1003.265625 C 762.628906 1003.398438 764.667969 998.8125 762.40625 996.183594 " fill-opacity="1" fill-rule="nonzero"/></g></g></g><g clip-path="url(#d4e7640b7f)"><g clip-path="url(#cf817efd6a)"><g clip-path="url(#6c3b5555e7)"><path fill="#454c57" d="M 821.925781 1010.136719 C 817.761719 1009.660156 813.570312 1009.40625 809.386719 1009.109375 C 808.242188 1008.976562 807.070312 1009.339844 806.175781 1010.050781 C 803.175781 1012.320312 804.699219 1017.527344 808.460938 1017.804688 C 813.183594 1017.839844 818.050781 1019.054688 822.710938 1018.636719 C 827.246094 1017.484375 826.550781 1010.527344 821.925781 1010.136719 " fill-opacity="1" fill-rule="nonzero"/></g></g></g><g clip-path="url(#3367a36dca)"><g clip-path="url(#a0282ad277)"><g clip-path="url(#c1711d25b9)"><path fill="#454c57" d="M 992.242188 1056.25 C 970.910156 1043.777344 947.660156 1035.121094 924.136719 1027.816406 C 912.6875 1024.246094 901.164062 1020.902344 889.488281 1018.183594 C 886.203125 1017.386719 882.898438 1016.707031 879.59375 1016.003906 C 878.464844 1015.773438 877.269531 1015.324219 876.167969 1015.820312 C 871.667969 1016.976562 872.292969 1023.925781 876.945312 1024.320312 C 910.175781 1031.289062 955.542969 1045.515625 984.476562 1061.828125 C 986.375 1062.734375 988.101562 1064.503906 990.355469 1064.085938 C 994.042969 1063.597656 995.332031 1058.375 992.242188 1056.25 " fill-opacity="1" fill-rule="nonzero"/></g></g></g><g clip-path="url(#0e06005b36)"><g clip-path="url(#ec2008389a)"><g clip-path="url(#bb831d0895)"><path fill="#454c57" d="M 907.546875 1126.199219 C 862.722656 1106.21875 812.902344 1097 768.976562 1085.105469 C 738.796875 1077.453125 710.097656 1065.453125 681.1875 1054.121094 C 673.398438 1051.246094 665.511719 1048.609375 657.511719 1046.375 C 654.722656 1045.910156 651.859375 1043.976562 649.0625 1045.078125 C 645.636719 1046.503906 645.695312 1051.863281 649.253906 1053.132812 C 683.328125 1061.902344 714.605469 1078.789062 748.472656 1088.265625 C 796.660156 1102.726562 842.164062 1109.886719 890.140625 1128.355469 C 894.113281 1129.941406 898.070312 1131.613281 902.007812 1133.316406 C 903.8125 1134.121094 905.78125 1135.238281 907.734375 1134.253906 C 911.164062 1132.824219 911.101562 1127.46875 907.546875 1126.199219 " fill-opacity="1" fill-rule="nonzero"/></g></g></g><g clip-path="url(#79fa08ce06)"><g clip-path="url(#5ab2fbe5ca)"><g clip-path="url(#564c462020)"><path fill="#454c57" d="M 810.464844 1179.746094 C 786.160156 1171.042969 762.152344 1161.449219 737.632812 1153.320312 C 719.015625 1147.035156 699.976562 1142.152344 681.046875 1136.898438 C 672.59375 1134.871094 664.347656 1131.628906 655.980469 1129.578125 C 651.359375 1129.503906 650.132812 1136.371094 654.503906 1137.984375 C 677.984375 1145.886719 702.269531 1151.09375 725.855469 1158.664062 C 753.964844 1167.589844 781.34375 1178.574219 809.066406 1188.566406 C 815.832031 1190.4375 817.457031 1181.011719 810.464844 1179.746094 " fill-opacity="1" fill-rule="nonzero"/></g></g></g><g clip-path="url(#7feb8d08d9)"><g clip-path="url(#494b5ea5f3)"><g clip-path="url(#acbc88cd34)"><path fill="#454c57" d="M 1068.824219 1310.445312 C 1047.441406 1325.476562 1025.726562 1340.042969 1004.675781 1355.550781 C 986.640625 1368.902344 969.292969 1383.136719 951.925781 1397.34375 C 946.902344 1401.453125 941.871094 1405.585938 936.640625 1409.425781 C 934.601562 1411.195312 931.328125 1412.308594 931.007812 1415.328125 C 930.488281 1419.042969 935.230469 1421.660156 938.097656 1419.195312 C 959.84375 1403.128906 979.972656 1384.984375 1001.628906 1368.78125 C 1025.257812 1350.777344 1050.035156 1334.355469 1074.324219 1317.25 C 1078.683594 1313.625 1073.40625 1306.902344 1068.824219 1310.445312 " fill-opacity="1" fill-rule="nonzero"/></g></g></g><g clip-path="url(#04f2c45b14)"><g clip-path="url(#cd9e410be9)"><g clip-path="url(#85caa4ec13)"><path fill="#454c57" d="M 1032.585938 1385.304688 C 1026.8125 1390.023438 1021.128906 1394.839844 1015.488281 1399.703125 C 1008.613281 1405.710938 1001.597656 1411.582031 995.109375 1418.011719 C 992.894531 1420.554688 989.054688 1423.253906 987.949219 1426.382812 C 986.632812 1430.875 993 1433.820312 995.675781 1430.015625 C 1002.757812 1421.832031 1017.015625 1409.953125 1027.964844 1400.535156 C 1031.3125 1397.695312 1034.679688 1394.886719 1038.074219 1392.105469 C 1038.96875 1391.386719 1039.554688 1390.316406 1039.675781 1389.167969 C 1040.195312 1385.445312 1035.441406 1382.847656 1032.585938 1385.304688 " fill-opacity="1" fill-rule="nonzero"/></g></g></g><g clip-path="url(#4910e1369e)"><g clip-path="url(#7295695814)"><g clip-path="url(#deb627e0e5)"><path fill="#454c57" d="M 1038.148438 1422.828125 C 1034.949219 1422.574219 1033.082031 1425.726562 1030.832031 1427.492188 C 1029.164062 1429.359375 1026.402344 1430.738281 1026.082031 1433.429688 C 1025.5625 1437.160156 1030.324219 1439.753906 1033.171875 1437.296875 C 1035.777344 1434.476562 1039.132812 1432.265625 1041.480469 1429.277344 C 1043.128906 1426.738281 1041.117188 1423.046875 1038.148438 1422.828125 " fill-opacity="1" fill-rule="nonzero"/></g></g></g><g clip-path="url(#16ec97d472)"><g clip-path="url(#29312d7599)"><g clip-path="url(#ab33c3aeda)"><path fill="#ef9832" d="M 1051.703125 821.105469 C 1071.703125 802.082031 1091.703125 783.058594 1111.691406 764.039062 C 1046.246094 754.332031 983.945312 727.679688 914.503906 720.011719 C 887.765625 734.171875 864.265625 754.382812 846.253906 778.6875 C 870.21875 778.964844 893.65625 785.375 916.773438 791.742188 C 959.207031 803.429688 1001.648438 815.117188 1051.703125 821.105469 " fill-opacity="1" fill-rule="nonzero"/></g></g></g><g fill="#454c57" fill-opacity="1"><g transform="translate(132.727817, 1226.256494)"><g><path d="M 124.015625 -252.960938 C 121.054688 -254.605469 117.433594 -254.277344 113.160156 -252.632812 C 112.828125 -252.632812 112.5 -252.304688 112.171875 -252.304688 L 109.871094 -250.988281 C 95.722656 -242.765625 76.972656 -218.09375 63.160156 -189.804688 L 70.066406 -235.855469 C 71.054688 -241.777344 68.421875 -247.699219 63.816406 -250.988281 L 57.894531 -255.59375 C 55.921875 -256.910156 53.617188 -257.238281 51.316406 -256.253906 C 49.011719 -255.265625 47.367188 -252.960938 47.367188 -250.332031 C 42.433594 -191.449219 15.132812 -37.5 -5.59375 10.527344 C -6.25 12.828125 -5.921875 15.132812 -4.277344 16.777344 C -3.289062 18.09375 -1.644531 18.421875 -0.328125 18.421875 C 0.328125 18.421875 0.988281 18.421875 1.644531 18.09375 C 6.90625 16.117188 11.183594 13.488281 14.472656 10.527344 C 17.105469 8.222656 19.078125 4.933594 20.066406 1.316406 C 23.355469 -9.210938 44.410156 -75.660156 60.199219 -170.726562 C 73.683594 -205.265625 98.027344 -240.132812 114.144531 -247.699219 C 115.132812 -248.027344 116.121094 -248.027344 117.105469 -247.371094 C 122.039062 -245.066406 124.671875 -229.277344 125 -221.382812 C 126.316406 -201.316406 122.699219 -178.949219 113.816406 -153.949219 C 101.972656 -118.421875 87.828125 -85.527344 66.117188 -85.527344 C 60.855469 -85.527344 58.882812 -88.160156 58.554688 -88.816406 C 56.910156 -93.75 57.238281 -98.683594 57.238281 -98.683594 C 57.566406 -100 56.578125 -100.988281 55.261719 -101.316406 C 53.617188 -101.316406 52.632812 -100.328125 52.304688 -99.015625 C 52.304688 -98.355469 50.660156 -80.921875 64.472656 -75.328125 C 68.09375 -73.683594 71.710938 -73.027344 75.328125 -73.027344 C 78.949219 -73.027344 82.894531 -73.683594 86.515625 -75.328125 C 102.632812 -82.238281 117.433594 -103.621094 130.59375 -138.816406 C 141.777344 -169.082031 146.710938 -193.75 145.066406 -212.171875 C 143.421875 -229.9375 137.171875 -247.042969 124.015625 -252.960938 Z M 124.015625 -252.960938 "/></g></g></g><g fill="#454c57" fill-opacity="1"><g transform="translate(257.728608, 1226.256494)"><g><path d="M 104.933594 -68.09375 C 103.621094 -68.75 102.304688 -68.09375 101.644531 -66.777344 C 88.488281 -39.472656 72.699219 -19.078125 59.867188 -8.222656 C 57.566406 -6.90625 54.933594 -5.59375 52.960938 -6.25 C 52.632812 -6.25 51.972656 -6.578125 51.316406 -7.894531 C 47.367188 -16.449219 53.289062 -44.410156 61.183594 -64.804688 C 62.171875 -67.433594 61.511719 -70.394531 59.539062 -72.039062 C 57.566406 -74.015625 54.605469 -74.671875 52.304688 -73.683594 C 43.75 -70.066406 31.578125 -65.789062 22.699219 -66.117188 C 18.75 -66.117188 16.449219 -67.105469 15.460938 -68.75 C 12.828125 -73.027344 17.433594 -84.210938 21.054688 -92.105469 C 23.683594 -97.699219 22.367188 -104.277344 17.433594 -108.222656 L 14.472656 -110.855469 C 12.5 -112.828125 9.539062 -113.488281 6.90625 -112.828125 C 4.277344 -112.171875 1.972656 -110.527344 0.988281 -107.894531 C -8.550781 -87.5 -11.183594 -75.660156 -1.316406 -65.460938 C 6.90625 -56.910156 26.316406 -58.882812 34.867188 -60.199219 C 26.316406 -38.816406 22.039062 -12.828125 29.933594 -0.65625 C 32.894531 3.289062 36.84375 5.59375 41.777344 5.59375 L 42.105469 5.59375 C 48.355469 5.59375 55.921875 1.644531 63.816406 -5.261719 C 64.804688 -5.921875 65.132812 -6.578125 65.460938 -6.90625 C 79.277344 -19.078125 94.078125 -39.804688 105.921875 -64.804688 C 106.578125 -66.117188 106.25 -67.433594 104.933594 -68.09375 Z M 104.933594 -68.09375 "/></g></g></g><g fill="#454c57" fill-opacity="1"><g transform="translate(359.044979, 1226.256494)"><g><path d="M 101.972656 -67.433594 C 100.988281 -68.09375 99.671875 -67.765625 98.683594 -66.777344 C 71.054688 -29.933594 54.277344 -15.132812 40.132812 -9.867188 L 39.804688 -9.867188 C 33.882812 -8.222656 28.617188 -9.539062 25 -13.816406 C 17.761719 -22.039062 17.433594 -39.144531 24.011719 -58.222656 C 30.59375 -59.539062 56.910156 -65.460938 68.75 -87.5 C 72.367188 -94.738281 73.027344 -100.660156 72.367188 -105.265625 C 72.367188 -106.25 72.039062 -107.566406 71.710938 -108.554688 C 71.054688 -110.527344 70.394531 -111.84375 69.738281 -113.160156 C 66.117188 -119.078125 59.539062 -122.699219 52.960938 -122.699219 C 37.828125 -122.699219 16.117188 -107.566406 0 -66.117188 C -9.539062 -41.117188 -4.605469 -25.65625 1.316406 -17.105469 C 8.550781 -6.578125 19.40625 -2.632812 26.316406 -2.632812 C 31.25 -2.632812 36.183594 -3.617188 41.117188 -5.261719 C 41.117188 -5.261719 41.449219 -5.261719 41.449219 -5.59375 C 58.554688 -11.511719 76.316406 -29.277344 102.632812 -63.816406 C 103.289062 -65.132812 103.289062 -66.449219 101.972656 -67.433594 Z M 26.644531 -64.804688 C 40.460938 -98.027344 51.972656 -107.894531 59.210938 -110.199219 C 61.511719 -111.183594 63.488281 -110.855469 65.132812 -109.871094 L 67.105469 -107.238281 C 68.75 -102.304688 67.765625 -96.054688 64.472656 -89.804688 C 54.933594 -72.367188 34.867188 -65.789062 25.988281 -63.816406 Z M 26.644531 -64.804688 "/></g></g></g><g fill="#454c57" fill-opacity="1"><g transform="translate(457.071873, 1226.256494)"><g><path d="M 117.105469 -68.09375 C 101.644531 -68.09375 88.816406 -86.183594 85.855469 -102.960938 C 85.855469 -103.949219 84.539062 -104.933594 83.554688 -104.933594 C 82.238281 -104.933594 81.25 -103.949219 81.25 -102.960938 C 80.921875 -102.304688 70.066406 -49.34375 51.316406 -24.34375 L 50.988281 -24.34375 C 50.660156 -24.011719 46.382812 -18.421875 37.171875 -19.738281 C 34.867188 -20.066406 32.894531 -21.382812 31.25 -24.011719 C 21.710938 -37.5 22.699219 -78.617188 29.277344 -109.210938 C 30.59375 -115.789062 27.632812 -122.039062 21.710938 -125.328125 L 19.738281 -126.644531 C 17.433594 -127.960938 14.472656 -128.289062 12.171875 -127.304688 C 9.867188 -126.316406 7.894531 -124.34375 6.90625 -122.039062 C -1.316406 -98.355469 -4.277344 -48.027344 9.539062 -22.699219 C 14.144531 -14.472656 20.394531 -9.210938 27.960938 -7.566406 C 29.277344 -7.238281 30.921875 -7.238281 32.238281 -7.238281 C 36.511719 -7.238281 40.460938 -8.550781 44.078125 -10.855469 C 48.027344 -13.488281 51.316406 -16.777344 54.605469 -21.054688 L 54.933594 -21.054688 L 54.933594 -21.382812 C 69.738281 -40.789062 79.605469 -75.660156 83.554688 -92.433594 C 89.472656 -76.972656 101.972656 -63.488281 117.105469 -63.488281 C 118.421875 -63.488281 119.410156 -64.472656 119.410156 -65.789062 C 119.410156 -67.105469 118.421875 -68.09375 117.105469 -68.09375 Z M 117.105469 -68.09375 "/></g></g></g><g fill="#454c57" fill-opacity="1"><g transform="translate(574.177882, 1226.256494)"><g><path d="M 8.222656 -7.894531 C 9.867188 -7.566406 11.511719 -7.238281 13.15625 -7.238281 C 23.027344 -7.238281 33.882812 -15.789062 46.054688 -33.222656 C 56.25 -48.027344 63.816406 -63.816406 63.816406 -63.816406 C 64.472656 -65.132812 63.816406 -66.449219 62.5 -67.105469 C 61.511719 -67.765625 59.867188 -67.105469 59.539062 -66.117188 C 53.617188 -53.289062 38.15625 -25.988281 23.683594 -15.789062 L 23.355469 -15.789062 C 22.039062 -14.804688 21.710938 -15.132812 21.382812 -15.460938 C 19.078125 -16.777344 16.117188 -24.34375 17.433594 -39.804688 C 19.40625 -59.539062 27.632812 -84.210938 34.539062 -100.660156 C 36.84375 -105.921875 34.867188 -112.171875 29.933594 -115.460938 L 24.671875 -118.75 C 22.699219 -120.066406 20.722656 -120.066406 18.75 -119.738281 C 16.777344 -119.078125 15.132812 -117.433594 14.472656 -115.460938 C 6.90625 -98.027344 -10.855469 -39.144531 -0.65625 -16.449219 C 1.316406 -12.171875 4.277344 -9.210938 8.222656 -7.894531 Z M 35.527344 -127.304688 C 37.171875 -126.644531 38.488281 -126.644531 39.804688 -126.644531 C 42.433594 -126.644531 45.722656 -128.289062 46.710938 -130.265625 L 54.277344 -143.09375 C 56.25 -147.371094 56.578125 -150.988281 55.59375 -154.933594 C 53.949219 -158.882812 50.660156 -162.171875 46.710938 -164.144531 L 45.722656 -164.476562 C 41.449219 -166.449219 36.84375 -164.804688 34.867188 -161.183594 L 26.644531 -143.421875 C 24.34375 -138.160156 26.316406 -132.238281 31.578125 -129.605469 Z M 35.527344 -127.304688 "/></g></g></g><g fill="#454c57" fill-opacity="1"><g transform="translate(633.388737, 1226.256494)"><g><path d="M 123.355469 -67.105469 C 122.699219 -68.09375 121.054688 -68.75 120.066406 -67.765625 C 119.738281 -67.765625 94.078125 -51.644531 70.066406 -57.238281 C 73.355469 -67.105469 74.671875 -77.304688 74.34375 -86.515625 C 73.355469 -103.289062 66.449219 -115.132812 54.605469 -119.410156 C 47.367188 -122.039062 40.132812 -121.710938 32.894531 -118.09375 C 19.078125 -110.855469 7.238281 -92.105469 0 -66.449219 C -6.25 -44.078125 1.316406 -27.960938 10.199219 -20.394531 C 15.460938 -16.117188 21.382812 -14.144531 27.632812 -14.144531 C 31.90625 -14.144531 35.855469 -15.132812 39.804688 -17.105469 C 52.960938 -23.355469 62.828125 -37.171875 68.421875 -52.304688 C 72.367188 -51.644531 76.316406 -50.988281 80.59375 -50.988281 C 84.867188 -50.988281 89.804688 -51.644531 94.738281 -52.632812 C 110.199219 -55.921875 122.039062 -63.488281 122.699219 -63.816406 C 123.683594 -64.472656 124.015625 -66.117188 123.355469 -67.105469 Z M 44.738281 -25.988281 C 39.472656 -22.039062 33.882812 -21.710938 28.949219 -25 C 21.710938 -29.933594 15.789062 -43.75 22.039062 -67.105469 C 24.671875 -76.972656 28.617188 -85.527344 33.554688 -92.105469 C 33.882812 -85.855469 36.183594 -77.304688 44.410156 -67.765625 C 49.671875 -61.511719 55.59375 -56.910156 62.828125 -54.277344 C 63.160156 -53.949219 63.488281 -53.949219 63.816406 -53.949219 C 59.539062 -42.761719 52.960938 -32.566406 44.738281 -25.988281 Z M 65.460938 -58.554688 C 65.132812 -58.554688 64.804688 -58.554688 64.472656 -58.882812 C 59.539062 -60.855469 55.59375 -65.132812 53.289062 -71.054688 C 48.027344 -84.539062 51.316406 -102.632812 53.289062 -108.222656 C 54.277344 -108.554688 54.933594 -108.554688 55.59375 -108.554688 C 60.199219 -109.210938 63.816406 -106.910156 65.789062 -102.304688 C 68.421875 -96.710938 69.410156 -90.460938 69.410156 -86.183594 C 70.066406 -77.632812 68.421875 -67.765625 65.460938 -58.554688 Z M 65.460938 -58.554688 "/></g></g></g><g fill="#454c57" fill-opacity="1"><g transform="translate(749.507886, 1226.256494)"><g><path d="M 135.527344 -68.09375 C 134.539062 -68.75 132.894531 -68.09375 132.238281 -67.105469 C 119.078125 -43.421875 108.882812 -28.617188 100.660156 -19.40625 C 100.660156 -19.078125 100.328125 -19.078125 100.328125 -19.078125 C 98.683594 -17.761719 93.421875 -13.816406 90.132812 -15.132812 C 88.488281 -15.789062 87.171875 -17.105469 86.183594 -19.078125 C 80.59375 -32.238281 89.472656 -72.039062 109.539062 -123.355469 C 111.515625 -127.632812 109.871094 -132.238281 105.59375 -134.539062 L 103.621094 -135.855469 C 100.988281 -137.5 98.027344 -137.828125 95.066406 -136.84375 C 92.433594 -136.183594 90.132812 -134.210938 88.816406 -131.578125 C 84.210938 -122.039062 79.277344 -109.210938 75 -95.722656 C 64.144531 -72.367188 50.988281 -49.34375 38.816406 -35.199219 L 38.488281 -34.867188 C 38.488281 -34.539062 38.15625 -34.539062 37.828125 -34.210938 C 36.183594 -32.566406 30.921875 -27.632812 24.671875 -30.921875 C 19.078125 -33.554688 17.761719 -56.578125 38.488281 -106.25 C 40.789062 -111.183594 39.144531 -117.433594 34.867188 -120.726562 L 32.566406 -122.371094 C 30.59375 -124.015625 27.960938 -124.671875 25.65625 -124.015625 C 23.027344 -123.355469 20.722656 -122.039062 19.738281 -119.738281 C 1.972656 -88.488281 -6.25 -48.355469 0.328125 -27.960938 C 2.300781 -22.039062 5.261719 -18.09375 9.539062 -16.449219 C 11.511719 -15.460938 13.816406 -14.804688 15.789062 -14.804688 C 18.09375 -14.804688 20.722656 -15.460938 23.027344 -16.449219 C 28.949219 -18.75 34.867188 -23.683594 40.789062 -30.261719 C 41.449219 -30.921875 42.105469 -31.25 42.433594 -31.90625 C 51.644531 -42.433594 60.527344 -56.910156 68.75 -72.039062 C 64.472656 -53.617188 62.171875 -35.855469 63.160156 -23.355469 C 63.816406 -13.488281 67.765625 -2.300781 76.972656 -0.328125 C 77.632812 -0.328125 78.617188 0 79.605469 0 C 86.515625 0 94.410156 -5.261719 103.621094 -15.460938 L 104.277344 -16.117188 C 113.816406 -26.972656 124.34375 -43.09375 136.515625 -64.804688 C 137.171875 -65.789062 136.84375 -67.433594 135.527344 -68.09375 Z M 135.527344 -68.09375 "/></g></g></g><g fill="#454c57" fill-opacity="1"><g transform="translate(881.087684, 1226.256494)"><g><path d="M 83.882812 -67.765625 C 82.894531 -68.421875 81.25 -68.421875 80.59375 -67.433594 C 80.265625 -67.105469 69.410156 -53.289062 41.449219 -39.472656 C 37.828125 -51.316406 31.578125 -60.527344 25.988281 -69.078125 C 19.738281 -78.289062 14.472656 -86.183594 13.816406 -95.394531 C 13.15625 -109.871094 22.367188 -124.34375 31.578125 -129.277344 C 33.222656 -130.265625 36.511719 -131.578125 38.816406 -129.933594 C 40.132812 -128.949219 41.449219 -127.960938 42.105469 -126.644531 C 46.054688 -121.054688 47.039062 -112.171875 44.410156 -105.59375 C 43.75 -104.277344 44.410156 -102.960938 45.394531 -102.304688 C 46.710938 -101.972656 48.027344 -102.304688 48.683594 -103.621094 C 52.304688 -111.515625 50.988281 -122.371094 46.054688 -129.605469 C 45.066406 -131.25 43.421875 -132.566406 42.105469 -133.882812 L 41.777344 -133.882812 L 41.777344 -134.210938 C 37.828125 -137.171875 32.894531 -138.488281 27.304688 -138.160156 C 17.433594 -137.5 7.894531 -132.238281 0.988281 -123.355469 C -7.238281 -112.828125 -10.199219 -99.34375 -7.894531 -85.199219 C -5.59375 -73.683594 0.328125 -64.804688 6.578125 -56.25 C 11.84375 -48.683594 17.433594 -40.460938 20.394531 -30.261719 C 2.632812 -23.355469 -9.210938 -10.855469 -11.511719 3.617188 C -12.828125 11.183594 -10.855469 18.09375 -6.578125 21.710938 C -4.605469 23.355469 -2.300781 24.34375 0.65625 25 C 3.289062 25.988281 6.25 26.316406 9.210938 26.316406 C 15.789062 26.316406 23.027344 24.011719 28.949219 19.738281 C 36.511719 13.816406 45.394531 1.972656 44.410156 -22.039062 C 44.078125 -26.644531 43.75 -30.59375 42.761719 -34.539062 C 72.367188 -49.34375 83.882812 -63.488281 84.210938 -64.472656 C 85.199219 -65.460938 84.867188 -66.777344 83.882812 -67.765625 Z M 10.199219 19.40625 C 5.261719 22.039062 -0.328125 20.394531 -3.289062 18.09375 C -6.25 15.460938 -7.566406 10.199219 -6.578125 4.277344 C -5.921875 -0.328125 -1.644531 -16.117188 21.382812 -25.328125 C 22.039062 -22.699219 22.367188 -20.066406 22.367188 -17.105469 C 23.355469 8.882812 15.460938 16.777344 10.199219 19.40625 Z M 10.199219 19.40625 "/></g></g></g><g fill="#454c57" fill-opacity="1"><g transform="translate(960.364493, 1226.256494)"><g/></g></g><g fill="#454c57" fill-opacity="1"><g transform="translate(1077.141512, 1226.256494)"><g><path d="M 124.015625 -252.960938 C 121.054688 -254.605469 117.433594 -254.277344 113.160156 -252.632812 C 112.828125 -252.632812 112.5 -252.304688 112.171875 -252.304688 L 109.871094 -250.988281 C 95.722656 -242.765625 76.972656 -218.09375 63.160156 -189.804688 L 70.066406 -235.855469 C 71.054688 -241.777344 68.421875 -247.699219 63.816406 -250.988281 L 57.894531 -255.59375 C 55.921875 -256.910156 53.617188 -257.238281 51.316406 -256.253906 C 49.011719 -255.265625 47.367188 -252.960938 47.367188 -250.332031 C 42.433594 -191.449219 15.132812 -37.5 -5.59375 10.527344 C -6.25 12.828125 -5.921875 15.132812 -4.277344 16.777344 C -3.289062 18.09375 -1.644531 18.421875 -0.328125 18.421875 C 0.328125 18.421875 0.988281 18.421875 1.644531 18.09375 C 6.90625 16.117188 11.183594 13.488281 14.472656 10.527344 C 17.105469 8.222656 19.078125 4.933594 20.066406 1.316406 C 23.355469 -9.210938 44.410156 -75.660156 60.199219 -170.726562 C 73.683594 -205.265625 98.027344 -240.132812 114.144531 -247.699219 C 115.132812 -248.027344 116.121094 -248.027344 117.105469 -247.371094 C 122.039062 -245.066406 124.671875 -229.277344 125 -221.382812 C 126.316406 -201.316406 122.699219 -178.949219 113.816406 -153.949219 C 101.972656 -118.421875 87.828125 -85.527344 66.117188 -85.527344 C 60.855469 -85.527344 58.882812 -88.160156 58.554688 -88.816406 C 56.910156 -93.75 57.238281 -98.683594 57.238281 -98.683594 C 57.566406 -100 56.578125 -100.988281 55.261719 -101.316406 C 53.617188 -101.316406 52.632812 -100.328125 52.304688 -99.015625 C 52.304688 -98.355469 50.660156 -80.921875 64.472656 -75.328125 C 68.09375 -73.683594 71.710938 -73.027344 75.328125 -73.027344 C 78.949219 -73.027344 82.894531 -73.683594 86.515625 -75.328125 C 102.632812 -82.238281 117.433594 -103.621094 130.59375 -138.816406 C 141.777344 -169.082031 146.710938 -193.75 145.066406 -212.171875 C 143.421875 -229.9375 137.171875 -247.042969 124.015625 -252.960938 Z M 124.015625 -252.960938 "/></g></g></g><g fill="#454c57" fill-opacity="1"><g transform="translate(1202.142283, 1226.256494)"><g><path d="M 119.410156 -68.09375 C 118.09375 -68.421875 116.777344 -67.765625 116.449219 -66.777344 C 111.84375 -43.421875 102.632812 -11.511719 92.765625 6.25 C 91.121094 8.222656 86.84375 13.15625 82.238281 10.527344 C 79.933594 9.210938 76.644531 -3.617188 80.921875 -35.855469 C 84.539062 -64.144531 92.765625 -94.738281 102.304688 -117.433594 C 104.277344 -122.699219 102.960938 -129.277344 97.699219 -133.882812 L 92.765625 -138.488281 C 91.121094 -140.132812 88.488281 -141.121094 86.183594 -141.121094 C 83.882812 -140.789062 82.238281 -139.804688 80.59375 -137.828125 C 75.988281 -128.949219 71.054688 -116.449219 67.105469 -101.972656 L 67.105469 -102.632812 C 65.132812 -110.527344 60.527344 -116.449219 54.605469 -119.410156 C 50 -121.382812 43.09375 -121.382812 36.183594 -118.75 C 26.972656 -115.132812 9.867188 -104.277344 0.988281 -71.710938 C -5.59375 -44.410156 -0.988281 -29.605469 3.289062 -21.710938 C 8.550781 -13.816406 15.460938 -11.84375 18.09375 -11.183594 C 19.40625 -10.855469 20.394531 -10.855469 21.710938 -10.855469 C 28.949219 -10.855469 37.5 -15.132812 45.394531 -25.988281 C 45.722656 -26.644531 46.054688 -26.972656 46.710938 -27.304688 C 46.710938 -27.632812 47.039062 -27.632812 47.039062 -27.960938 C 50.660156 -33.222656 54.277344 -39.472656 57.566406 -47.699219 C 56.25 -28.617188 55.921875 -0.328125 64.804688 14.472656 C 68.09375 20.066406 72.367188 23.355469 77.960938 24.011719 L 79.277344 24.011719 C 89.804688 24.011719 99.34375 9.539062 109.539062 -20.066406 C 116.777344 -42.105469 121.382812 -64.804688 121.710938 -65.132812 C 121.382812 -66.449219 120.726562 -67.765625 119.410156 -68.09375 Z M 64.144531 -88.816406 C 62.5 -82.238281 61.511719 -75.660156 60.527344 -68.75 C 54.605469 -51.644531 48.683594 -39.144531 42.761719 -30.59375 C 37.5 -23.683594 31.25 -23.355469 28.617188 -25 C 25.65625 -26.644531 18.75 -30.59375 26.644531 -68.421875 C 33.882812 -103.949219 49.34375 -109.871094 54.277344 -109.210938 C 57.894531 -108.554688 61.183594 -104.933594 62.5 -101.316406 C 63.488281 -98.027344 64.144531 -93.75 64.144531 -88.816406 Z M 64.144531 -88.816406 "/></g></g></g><g fill="#454c57" fill-opacity="1"><g transform="translate(1318.919302, 1226.256494)"><g><path d="M 118.75 -67.433594 C 104.605469 -53.617188 86.515625 -38.15625 71.054688 -28.617188 C 76.644531 -35.199219 82.894531 -45.394531 88.488281 -59.867188 C 98.683594 -86.515625 100 -105.265625 92.433594 -115.789062 C 88.816406 -121.054688 83.222656 -123.683594 76.316406 -123.683594 C 72.367188 -123.683594 66.777344 -120.066406 60.855469 -115.460938 L 60.199219 -114.804688 C 54.277344 -109.871094 48.027344 -103.289062 43.09375 -97.371094 C 36.511719 -89.472656 30.921875 -81.25 26.316406 -73.355469 C 29.277344 -85.527344 32.566406 -96.054688 35.527344 -104.605469 C 37.828125 -110.527344 36.84375 -117.105469 32.566406 -122.039062 L 28.949219 -126.644531 C 27.304688 -128.621094 24.671875 -129.605469 22.367188 -129.277344 C 19.738281 -128.621094 17.761719 -126.976562 16.777344 -124.671875 C -7.238281 -63.816406 -18.75 39.144531 -19.40625 109.210938 C -19.40625 114.804688 -17.433594 119.738281 -14.144531 123.355469 C -11.511719 125.988281 -7.894531 127.632812 -3.949219 127.632812 C 0.65625 127.632812 4.605469 123.355469 4.605469 118.421875 C 4.605469 56.25 11.511719 -2.300781 20.394531 -46.710938 C 25.65625 -70.066406 47.699219 -98.027344 63.160156 -111.183594 C 63.160156 -111.183594 63.488281 -111.183594 63.488281 -111.515625 C 66.777344 -113.816406 73.355469 -115.460938 75.660156 -112.828125 C 78.289062 -109.539062 78.617188 -88.816406 67.105469 -64.472656 C 56.910156 -42.105469 42.105469 -25.328125 36.84375 -25.988281 C 35.199219 -26.316406 34.539062 -29.605469 34.210938 -30.921875 C 33.222656 -44.078125 43.421875 -60.855469 43.421875 -61.183594 C 44.078125 -62.171875 43.75 -63.816406 42.761719 -64.472656 C 41.777344 -65.132812 40.132812 -64.804688 39.472656 -63.488281 C 38.816406 -62.828125 27.960938 -45.394531 29.605469 -30.59375 L 29.605469 -29.933594 C 29.933594 -26.972656 30.59375 -24.34375 32.238281 -21.710938 C 34.867188 -17.105469 39.804688 -14.472656 45.394531 -14.144531 L 46.382812 -14.144531 C 70.394531 -14.144531 113.488281 -55.59375 122.039062 -64.144531 C 123.027344 -65.132812 123.027344 -66.449219 122.371094 -67.433594 C 121.382812 -68.421875 119.738281 -68.421875 118.75 -67.433594 Z M 118.75 -67.433594 "/></g></g></g><g fill="#454c57" fill-opacity="1"><g transform="translate(1436.025348, 1226.256494)"><g><path d="M 101.972656 -67.433594 C 100.988281 -68.09375 99.671875 -67.765625 98.683594 -66.777344 C 71.054688 -29.933594 54.277344 -15.132812 40.132812 -9.867188 L 39.804688 -9.867188 C 33.882812 -8.222656 28.617188 -9.539062 25 -13.816406 C 17.761719 -22.039062 17.433594 -39.144531 24.011719 -58.222656 C 30.59375 -59.539062 56.910156 -65.460938 68.75 -87.5 C 72.367188 -94.738281 73.027344 -100.660156 72.367188 -105.265625 C 72.367188 -106.25 72.039062 -107.566406 71.710938 -108.554688 C 71.054688 -110.527344 70.394531 -111.84375 69.738281 -113.160156 C 66.117188 -119.078125 59.539062 -122.699219 52.960938 -122.699219 C 37.828125 -122.699219 16.117188 -107.566406 0 -66.117188 C -9.539062 -41.117188 -4.605469 -25.65625 1.316406 -17.105469 C 8.550781 -6.578125 19.40625 -2.632812 26.316406 -2.632812 C 31.25 -2.632812 36.183594 -3.617188 41.117188 -5.261719 C 41.117188 -5.261719 41.449219 -5.261719 41.449219 -5.59375 C 58.554688 -11.511719 76.316406 -29.277344 102.632812 -63.816406 C 103.289062 -65.132812 103.289062 -66.449219 101.972656 -67.433594 Z M 26.644531 -64.804688 C 40.460938 -98.027344 51.972656 -107.894531 59.210938 -110.199219 C 61.511719 -111.183594 63.488281 -110.855469 65.132812 -109.871094 L 67.105469 -107.238281 C 68.75 -102.304688 67.765625 -96.054688 64.472656 -89.804688 C 54.933594 -72.367188 34.867188 -65.789062 25.988281 -63.816406 Z M 26.644531 -64.804688 "/></g></g></g><g fill="#454c57" fill-opacity="1"><g transform="translate(1534.052187, 1226.256494)"><g><path d="M 104.933594 -68.09375 C 103.621094 -68.75 102.304688 -68.09375 101.644531 -66.777344 C 88.488281 -39.472656 72.699219 -19.078125 59.867188 -8.222656 C 57.566406 -6.90625 54.933594 -5.59375 52.960938 -6.25 C 52.632812 -6.25 51.972656 -6.578125 51.316406 -7.894531 C 47.367188 -16.449219 53.289062 -44.410156 61.183594 -64.804688 C 62.171875 -67.433594 61.511719 -70.394531 59.539062 -72.039062 C 57.566406 -74.015625 54.605469 -74.671875 52.304688 -73.683594 C 43.75 -70.066406 31.578125 -65.789062 22.699219 -66.117188 C 18.75 -66.117188 16.449219 -67.105469 15.460938 -68.75 C 12.828125 -73.027344 17.433594 -84.210938 21.054688 -92.105469 C 23.683594 -97.699219 22.367188 -104.277344 17.433594 -108.222656 L 14.472656 -110.855469 C 12.5 -112.828125 9.539062 -113.488281 6.90625 -112.828125 C 4.277344 -112.171875 1.972656 -110.527344 0.988281 -107.894531 C -8.550781 -87.5 -11.183594 -75.660156 -1.316406 -65.460938 C 6.90625 -56.910156 26.316406 -58.882812 34.867188 -60.199219 C 26.316406 -38.816406 22.039062 -12.828125 29.933594 -0.65625 C 32.894531 3.289062 36.84375 5.59375 41.777344 5.59375 L 42.105469 5.59375 C 48.355469 5.59375 55.921875 1.644531 63.816406 -5.261719 C 64.804688 -5.921875 65.132812 -6.578125 65.460938 -6.90625 C 79.277344 -19.078125 94.078125 -39.804688 105.921875 -64.804688 C 106.578125 -66.117188 106.25 -67.433594 104.933594 -68.09375 Z M 104.933594 -68.09375 "/></g></g></g><g fill="#454c57" fill-opacity="1"><g transform="translate(1635.368557, 1226.256494)"><g><path d="M 83.882812 -67.765625 C 82.894531 -68.421875 81.25 -68.421875 80.59375 -67.433594 C 80.265625 -67.105469 69.410156 -53.289062 41.449219 -39.472656 C 37.828125 -51.316406 31.578125 -60.527344 25.988281 -69.078125 C 19.738281 -78.289062 14.472656 -86.183594 13.816406 -95.394531 C 13.15625 -109.871094 22.367188 -124.34375 31.578125 -129.277344 C 33.222656 -130.265625 36.511719 -131.578125 38.816406 -129.933594 C 40.132812 -128.949219 41.449219 -127.960938 42.105469 -126.644531 C 46.054688 -121.054688 47.039062 -112.171875 44.410156 -105.59375 C 43.75 -104.277344 44.410156 -102.960938 45.394531 -102.304688 C 46.710938 -101.972656 48.027344 -102.304688 48.683594 -103.621094 C 52.304688 -111.515625 50.988281 -122.371094 46.054688 -129.605469 C 45.066406 -131.25 43.421875 -132.566406 42.105469 -133.882812 L 41.777344 -133.882812 L 41.777344 -134.210938 C 37.828125 -137.171875 32.894531 -138.488281 27.304688 -138.160156 C 17.433594 -137.5 7.894531 -132.238281 0.988281 -123.355469 C -7.238281 -112.828125 -10.199219 -99.34375 -7.894531 -85.199219 C -5.59375 -73.683594 0.328125 -64.804688 6.578125 -56.25 C 11.84375 -48.683594 17.433594 -40.460938 20.394531 -30.261719 C 2.632812 -23.355469 -9.210938 -10.855469 -11.511719 3.617188 C -12.828125 11.183594 -10.855469 18.09375 -6.578125 21.710938 C -4.605469 23.355469 -2.300781 24.34375 0.65625 25 C 3.289062 25.988281 6.25 26.316406 9.210938 26.316406 C 15.789062 26.316406 23.027344 24.011719 28.949219 19.738281 C 36.511719 13.816406 45.394531 1.972656 44.410156 -22.039062 C 44.078125 -26.644531 43.75 -30.59375 42.761719 -34.539062 C 72.367188 -49.34375 83.882812 -63.488281 84.210938 -64.472656 C 85.199219 -65.460938 84.867188 -66.777344 83.882812 -67.765625 Z M 10.199219 19.40625 C 5.261719 22.039062 -0.328125 20.394531 -3.289062 18.09375 C -6.25 15.460938 -7.566406 10.199219 -6.578125 4.277344 C -5.921875 -0.328125 -1.644531 -16.117188 21.382812 -25.328125 C 22.039062 -22.699219 22.367188 -20.066406 22.367188 -17.105469 C 23.355469 8.882812 15.460938 16.777344 10.199219 19.40625 Z M 10.199219 19.40625 "/></g></g></g></svg>